<svg xmlns="http://www.w3.org/2000/svg" viewBox="0 0 64 64"><path fill="#88e2de" d="M19.9,23.436a1.5,1.5,0,0,1-1.5,1.5H13.022v4.732h3.325a1.5,1.5,0,0,1,0,3H13.022v7.9a1.5,1.5,0,0,1-3,0V23.436a1.5,1.5,0,0,1,1.5-1.5H18.4A1.5,1.5,0,0,1,19.9,23.436Zm21.554,1.5a1.5,1.5,0,0,0,0-3H34.575a1.5,1.5,0,0,0-1.5,1.5V40.564a1.5,1.5,0,0,0,1.5,1.5h6.876a1.5,1.5,0,0,0,0-3H36.075v-6.4H39.4a1.5,1.5,0,0,0,0-3H36.075V24.936ZM53.978,40.564a1.5,1.5,0,0,0-1.5-1.5H47.1v-6.4h3.325a1.5,1.5,0,0,0,0-3H47.1V24.936h5.375a1.5,1.5,0,0,0,0-3H45.6a1.5,1.5,0,0,0-1.5,1.5V40.564a1.5,1.5,0,0,0,1.5,1.5h6.875A1.5,1.5,0,0,0,53.978,40.564ZM27.123,21.936H22.851a1.5,1.5,0,0,0-1.5,1.5V40.564a1.5,1.5,0,0,0,3,0V24.936h2.772a1.5,1.5,0,0,1,1.5,1.5V29a1.5,1.5,0,0,1-1.5,1.5h-.272a1.5,1.5,0,0,0-1.4,2.035L28.722,41.1a1.5,1.5,0,1,0,2.8-1.071l-2.632-6.891A4.507,4.507,0,0,0,31.623,29V26.436A4.5,4.5,0,0,0,27.123,21.936ZM62.17,16.3V47.7a1.5,1.5,0,0,1-1.5,1.5H3.33a1.5,1.5,0,0,1-1.5-1.5V16.3a1.5,1.5,0,0,1,1.5-1.5H60.67A1.5,1.5,0,0,1,62.17,16.3ZM4.83,46.2H53.28c3.382,0,3.89-3.321,3.89-5.843V17.8H4.83Z"/></svg>